<svg xmlns="http://www.w3.org/2000/svg" viewBox="0 0 200 60" width="200" height="60">
  <!-- DXC Technology Logo with transparent background -->
  <defs>
    <linearGradient id="gradient1" x1="0%" y1="0%" x2="100%" y2="0%">
      <stop offset="0%" style="stop-color:#7C2483;stop-opacity:1" />
      <stop offset="100%" style="stop-color:#D1242A;stop-opacity:1" />
    </linearGradient>
  </defs>
  
  <!-- D -->
  <path d="M 10 15 L 30 15 C 40 15 45 20 45 30 C 45 40 40 45 30 45 L 10 45 Z M 18 22 L 18 38 L 28 38 C 33 38 37 35 37 30 C 37 25 33 22 28 22 Z" fill="url(#gradient1)"/>
  
  <!-- X -->
  <path d="M 55 15 L 65 15 L 75 27 L 85 15 L 95 15 L 80 30 L 96 45 L 86 45 L 75 33 L 64 45 L 54 45 L 70 30 Z" fill="url(#gradient1)"/>
  
  <!-- C -->
  <path d="M 105 15 C 125 15 135 22 135 30 C 135 38 125 45 105 45 C 95 45 88 42 85 38 L 90 33 C 92 36 97 38 105 38 C 118 38 127 34 127 30 C 127 26 118 22 105 22 C 97 22 92 24 90 27 L 85 22 C 88 18 95 15 105 15 Z" fill="url(#gradient1)"/>
  
  <!-- Technology text -->
  <text x="10" y="55" font-family="Arial, sans-serif" font-size="8" fill="#333333" font-weight="300">
    TECHNOLOGY
  </text>
</svg>
